<?xml version="1.0" encoding="UTF-8" standalone="no"?><!DOCTYPE svg PUBLIC "-//W3C//DTD SVG 1.1//EN" "http://www.w3.org/Graphics/SVG/1.1/DTD/svg11.dtd"><svg width="100%" height="100%" viewBox="0 0 170 192" version="1.1" xmlns="http://www.w3.org/2000/svg" xmlns:xlink="http://www.w3.org/1999/xlink" xml:space="preserve" xmlns:serif="http://www.serif.com/" style="fill-rule:evenodd;clip-rule:evenodd;stroke-linejoin:round;stroke-miterlimit:2;"><path d="M79.498,80.861c-0.47,2.816 7.214,7.252 9.418,5.437l24.488,-20.173c0.894,-0.737 1.818,-1.419 2.767,-2.045c2.429,-1.863 4.889,-3.449 7.348,-4.668c17.168,-9.123 34.336,-9.123 42.92,-0c8.584,9.123 -6.114,25.008 -6.114,37.171c0,12.158 14.698,26.689 6.114,35.812c-8.584,9.123 -25.752,9.123 -42.92,-0c-2.458,-1.219 -4.916,-2.804 -7.345,-4.667c-0.951,-0.626 -1.875,-1.309 -2.77,-2.046l-24.488,-20.174c-2.204,-1.815 -9.888,2.622 -9.418,5.438l5.227,31.294c0.191,1.143 0.32,2.284 0.387,3.419c0.399,3.035 0.542,5.957 0.369,8.697c-0.683,19.43 -9.268,34.298 -21.46,37.17c-12.193,2.873 -18.601,-17.798 -29.135,-23.88c-10.529,-6.079 -30.462,-0.616 -34.07,-12.611c-3.609,-11.996 4.975,-26.864 21.46,-37.17c2.285,-1.52 4.886,-2.856 7.714,-4.028c1.017,-0.51 2.071,-0.969 3.157,-1.376l29.715,-11.121c2.673,-1 2.673,-9.873 -0,-10.874l-29.715,-11.12c-1.085,-0.407 -2.138,-0.866 -3.155,-1.375c-2.827,-1.172 -5.43,-2.509 -7.716,-4.029c-16.485,-10.306 -25.069,-25.175 -21.461,-37.17c3.609,-11.995 24.715,-7.209 35.249,-13.291c10.529,-6.079 15.764,-26.073 27.957,-23.2c12.193,2.872 20.777,17.74 21.46,37.17c0.173,2.738 0.03,5.659 -0.369,8.694c-0.067,1.136 -0.196,2.278 -0.387,3.422l-5.227,31.294Z" style="fill:#107c3e;"/></svg>