<?xml version="1.0" encoding="UTF-8" standalone="no"?><!DOCTYPE svg PUBLIC "-//W3C//DTD SVG 1.1//EN" "http://www.w3.org/Graphics/SVG/1.1/DTD/svg11.dtd"><svg width="100%" height="100%" viewBox="0 0 5245 1835" version="1.1" xmlns="http://www.w3.org/2000/svg" xmlns:xlink="http://www.w3.org/1999/xlink" xml:space="preserve" xmlns:serif="http://www.serif.com/" style="fill-rule:evenodd;clip-rule:evenodd;stroke-linejoin:round;stroke-miterlimit:2;"><path d="M4310.33,246.253c-1.432,8.575 21.97,22.086 28.68,16.558l74.576,-61.436c2.724,-2.244 5.538,-4.321 8.427,-6.227c7.398,-5.672 14.887,-10.502 22.377,-14.216c52.284,-27.783 104.567,-27.783 130.709,-0c26.142,27.782 -18.619,76.158 -18.619,113.202c0,37.025 44.761,81.276 18.619,109.059c-26.142,27.784 -78.425,27.784 -130.709,-0c-7.486,-3.713 -14.971,-8.539 -22.369,-14.211c-2.894,-1.908 -5.71,-3.987 -8.435,-6.232l-74.576,-61.436c-6.71,-5.528 -30.112,7.983 -28.68,16.558l15.917,95.303c0.582,3.481 0.974,6.956 1.18,10.412c1.213,9.243 1.651,18.143 1.123,26.487c-2.081,59.17 -28.223,104.449 -65.354,113.197c-37.132,8.748 -56.647,-54.203 -88.727,-72.725c-32.065,-18.513 -92.768,-1.874 -103.757,-38.405c-10.991,-36.532 15.151,-81.811 65.354,-113.198c6.958,-4.626 14.881,-8.696 23.492,-12.267c3.099,-1.552 6.307,-2.951 9.615,-4.189l90.493,-33.866c8.142,-3.048 8.142,-30.069 -0,-33.116l-90.493,-33.867c-3.306,-1.237 -6.512,-2.635 -9.607,-4.185c-8.612,-3.57 -16.539,-7.642 -23.501,-12.271c-50.202,-31.387 -76.344,-76.666 -65.354,-113.197c10.99,-36.531 75.265,-21.955 107.346,-40.477c32.064,-18.513 48.006,-79.402 85.138,-70.654c37.132,8.748 63.274,54.027 65.354,113.198c0.528,8.339 0.091,17.235 -1.122,26.477c-0.205,3.461 -0.598,6.938 -1.18,10.422l-15.917,95.302Z" style="fill:#fff;"/><g><path d="M231.029,1364.54c-35.733,-0 -69.436,-3.452 -101.109,-10.355c-31.673,-6.903 -58.796,-15.43 -81.369,-25.581c-22.573,-10.151 -38.757,-19.693 -48.551,-28.627l32.863,-186.377l71.872,-0l-0.986,123.033c14.62,13.806 34.709,25.379 60.268,34.718c25.559,9.339 50.113,14.009 73.664,14.009c59.284,-0 103.1,-10.152 131.449,-30.454c28.349,-20.303 46.533,-53.193 54.552,-98.671c4.869,-27.611 2.477,-49.741 -7.175,-66.389c-9.652,-16.648 -25.347,-31.266 -47.084,-43.854c-21.738,-12.587 -48.444,-25.784 -80.118,-39.59c-25.75,-10.557 -51.631,-21.521 -77.644,-32.89c-26.013,-11.369 -49.124,-25.378 -69.333,-42.026c-20.21,-16.648 -34.926,-37.966 -44.15,-63.953c-9.223,-25.988 -10.398,-58.472 -3.525,-97.453c8.019,-45.478 25.963,-85.068 53.833,-118.77c27.869,-33.702 63.586,-60.096 107.15,-79.18c43.564,-19.084 92.552,-28.627 146.963,-28.627c28.424,0 56.764,1.625 85.021,4.873c28.257,3.248 53.528,7.309 75.814,12.182c22.285,4.872 38.349,9.339 48.19,13.399l-34.367,194.905l-66.998,0l-2.31,-118.161c-3.774,-1.624 -16.351,-6.294 -37.729,-14.009c-21.379,-7.715 -49.122,-11.572 -83.23,-11.572c-38.169,-0 -68.634,4.669 -91.396,14.009c-22.761,9.339 -39.634,22.129 -50.619,38.371c-10.985,16.242 -18.483,35.733 -22.492,58.472c-5.155,29.236 -0.816,52.99 13.016,71.262c13.832,18.272 33.552,33.093 59.158,44.463c25.607,11.369 52.767,23.144 81.478,35.326c34.111,13.806 65.964,30.048 95.561,48.726c29.597,18.679 52.005,42.433 67.224,71.262c15.219,28.83 18.604,67.202 10.156,115.116c-7.876,44.666 -22.692,82.631 -44.447,113.897c-21.755,31.266 -47.679,56.238 -77.772,74.917c-30.093,18.678 -62.336,32.281 -96.73,40.808c-34.393,8.527 -67.426,12.791 -99.098,12.791Z" style="fill:#fff;fill-rule:nonzero;"/><path d="M589.307,1349.92l9.666,-54.817l101.678,-17.054l119.64,-678.512l-95.449,-18.273l9.881,-56.035l187.448,-26.799l31.961,12.181l-47.47,269.212l-5.373,9.746l-1.288,7.309c18.103,-10.558 38.775,-20.709 62.014,-30.454c23.239,-9.746 47.135,-17.461 71.688,-23.145c24.554,-5.685 46.982,-8.527 67.284,-8.527c30.048,-0 56.526,5.278 79.433,15.836c22.908,10.557 39.69,28.22 50.346,52.989c10.657,24.77 12.334,57.863 5.031,99.28l-66.157,375.192l92.009,17.054l-9.666,54.817l-305.756,-0l9.665,-54.817l95.587,-17.054l62.505,-354.483c6.444,-36.545 1.412,-62.126 -15.095,-76.744c-16.506,-14.618 -45.468,-21.927 -86.886,-21.927c-16.242,0 -35.41,1.624 -57.503,4.873c-22.094,3.248 -41.548,6.497 -58.363,9.745l-77.325,438.536l89.572,17.054l-9.665,54.817l-309.412,-0Z" style="fill:#fff;fill-rule:nonzero;"/><path d="M1489.02,1359.66c-42.229,-0 -74.714,-6.903 -97.455,-20.709c-22.741,-13.805 -37.923,-32.484 -45.545,-56.035c-7.623,-23.551 -9.072,-48.726 -4.347,-75.525c6.158,-34.921 19.744,-64.766 40.76,-89.535c21.016,-24.769 48.756,-45.071 83.22,-60.907c34.464,-15.836 74.936,-26.597 121.417,-32.282l118.946,-18.272l15.465,-87.707c6.014,-34.108 1.52,-59.283 -13.482,-75.526c-15.002,-16.242 -41.588,-24.363 -79.757,-24.363c-21.114,0 -38.216,1.422 -51.305,4.264c-13.089,2.842 -19.633,4.263 -19.633,4.263l-38.033,112.071c-0,-0 -4.347,1.624 -13.041,4.872c-8.694,3.249 -20.35,4.873 -34.968,4.873c-17.866,-0 -32.198,-5.076 -42.996,-15.227c-10.797,-10.151 -14.406,-25.378 -10.826,-45.681c4.582,-25.987 17.895,-48.523 39.938,-67.607c22.044,-19.085 48.017,-35.124 77.92,-48.118c29.902,-12.993 59.602,-22.535 89.1,-28.626c29.497,-6.091 53.585,-9.136 72.264,-9.136c57.659,-0 98.983,13.196 123.971,39.59c24.988,26.393 33.472,62.329 25.453,107.806l-67.016,380.065l84.701,17.054l-9.022,51.162c0,0 -6.246,2.031 -18.737,6.091c-12.491,4.061 -28.876,8.324 -49.154,12.791c-20.278,4.466 -41.381,6.7 -63.308,6.7c-25.987,-0 -42.409,-5.888 -49.266,-17.664c-6.856,-11.775 -10.62,-24.972 -11.291,-39.59l-6.091,0c-5.875,5.685 -16.945,13.197 -33.209,22.536c-16.265,9.339 -36.077,18.069 -59.435,26.19c-23.359,8.121 -48.438,12.182 -75.238,12.182Zm72.074,-84.053c25.988,0 48.726,-3.451 68.216,-10.354c19.489,-6.903 30.524,-10.76 33.103,-11.572l32.004,-181.505c-50.254,4.06 -91.025,10.76 -122.314,20.099c-31.288,9.339 -55.029,21.927 -71.221,37.763c-16.192,15.836 -26.292,35.123 -30.302,57.862c-4.296,24.363 0.783,45.072 15.236,62.126c14.453,17.054 39.546,25.581 75.278,25.581Z" style="fill:#fff;fill-rule:nonzero;"/><path d="M1900.04,1349.92l9.665,-54.817l100.46,-17.054l75.607,-428.791l-95.234,-19.49l9.451,-53.599l186.087,-32.89l27.308,52.38c31.717,-18.678 65.596,-33.499 101.638,-44.462c36.041,-10.964 67.056,-16.445 93.043,-16.445c30.048,-0 56.418,5.887 79.111,17.663c22.693,11.775 39.152,27.814 49.378,48.117c17.578,-12.182 39.408,-23.145 65.489,-32.89c26.081,-9.745 52.653,-17.663 79.714,-23.754c27.061,-6.091 51.149,-9.136 72.264,-9.136c48.726,-0 85.333,14.618 109.819,43.853c24.487,29.236 32.435,68.217 23.843,116.943l-67.445,382.501l92.009,17.054l-9.666,54.817l-305.757,-0l9.666,-54.817l95.587,-17.054l62.29,-353.265c6.587,-37.357 2.845,-63.344 -11.226,-77.962c-14.07,-14.618 -42.22,-21.927 -84.45,-21.927c-15.429,0 -34.8,1.624 -58.112,4.873c-23.312,3.248 -43.853,6.903 -61.623,10.963l-5.44,37.763l-70.452,399.555l77.176,18.272l-9.451,53.599l-280.176,-0l9.451,-53.599l84.839,-18.272l62.29,-353.265c6.587,-37.357 2.845,-63.344 -11.226,-77.962c-14.07,-14.618 -41.814,-21.927 -83.231,-21.927c-14.618,0 -32.568,1.624 -53.849,4.873c-21.282,3.248 -42.503,7.309 -63.665,12.181l-76.896,436.1l89.572,17.054l-9.665,54.817l-308.193,-0Z" style="fill:#fff;fill-rule:nonzero;"/><path d="M2964.63,1295.1l90.714,-17.054l75.823,-430.009l-91.795,-18.272l9.881,-56.035l191.962,-31.672l13.768,66.998c-0,0 5.111,-3.654 15.333,-10.963c10.222,-7.309 23.536,-16.039 39.944,-26.191c16.408,-10.151 33.174,-18.881 50.299,-26.19c17.125,-7.309 32.59,-10.963 46.396,-10.963c17.866,-0 30.944,5.278 39.234,15.836c8.29,10.557 10.645,25.987 7.065,46.29c-2.578,14.617 -7.914,27.611 -16.01,38.981c-8.095,11.369 -15.69,19.896 -22.783,25.581c-7.093,5.684 -11.046,8.527 -11.858,8.527l-62.558,-18.272c-8.504,-2.437 -15.323,-4.061 -20.459,-4.873c-5.135,-0.812 -12.576,-1.218 -22.321,-1.218c-8.933,-0 -18.451,1.015 -28.554,3.045c-10.104,2.03 -16.851,3.452 -20.243,4.264l-74.533,422.699l115.154,17.054l-10.095,57.254l-324.029,-0l9.665,-54.817Z" style="fill:#fff;fill-rule:nonzero;"/><path d="M3671.53,1362.1c-60.096,0 -107.45,-12.384 -142.064,-37.153c-34.613,-24.77 -57.417,-60.096 -68.411,-105.98c-10.994,-45.884 -11.049,-99.686 -0.166,-161.405c7.589,-43.042 20.875,-83.85 39.859,-122.425c18.983,-38.575 43.341,-73.089 73.074,-103.543c29.733,-30.454 64.208,-54.411 103.425,-71.871c39.218,-17.46 82.377,-26.19 129.479,-26.19c60.096,-0 107.451,12.384 142.064,37.153c34.613,24.769 57.763,59.284 69.45,103.543c11.686,44.26 12.302,96.032 1.849,155.315c-8.019,45.478 -21.46,88.316 -40.324,128.515c-18.863,40.2 -42.756,75.526 -71.677,105.98c-28.92,30.454 -63.192,54.411 -102.816,71.871c-39.623,17.46 -84.204,26.19 -133.742,26.19Zm36.677,-76.743c37.356,-0 67.63,-9.34 90.82,-28.018c23.19,-18.678 41.518,-45.478 54.984,-80.398c13.467,-34.921 24.496,-76.744 33.088,-125.47c14.319,-81.21 14.728,-141.103 1.228,-179.678c-13.501,-38.575 -48.675,-57.862 -105.522,-57.862c-42.23,-0 -75.68,8.933 -100.351,26.799c-24.671,17.866 -43.775,44.463 -57.313,79.789c-13.538,35.327 -24.89,78.977 -34.054,130.952c-8.592,48.726 -11.739,90.752 -9.441,126.079c2.299,35.326 13.409,62.126 33.332,80.398c19.923,18.272 50.999,27.409 93.229,27.409Z" style="fill:#fff;fill-rule:nonzero;"/><path d="M4502.01,1287.79c-0,-0 -8.825,6.294 -26.474,18.881c-17.65,12.588 -42.369,24.972 -74.159,37.154c-31.79,12.182 -68.799,18.272 -111.029,18.272c-54.411,0 -99.747,-11.166 -136.008,-33.499c-36.261,-22.333 -61.25,-55.629 -74.967,-99.889c-13.716,-44.259 -14.775,-99.279 -3.176,-165.06c8.735,-49.538 23.143,-94.407 43.225,-134.606c20.082,-40.199 45.049,-74.713 74.902,-103.543c29.852,-28.829 63.432,-51.162 100.739,-66.998c37.306,-15.836 76.668,-23.754 118.086,-23.754c40.605,-0 74.308,6.903 101.109,20.708c26.802,13.806 45.877,32.281 57.226,55.426c11.349,23.145 14.517,48.93 9.505,77.353c-2.72,15.43 -10.505,29.642 -23.354,42.636c-12.848,12.993 -31.454,19.49 -55.817,19.49c-13.806,0 -23.706,-1.421 -29.702,-4.263c-5.996,-2.843 -8.993,-4.264 -8.993,-4.264l-0.304,-115.725c0,0 -5.732,-2.03 -17.198,-6.09c-11.466,-4.061 -28.568,-6.091 -51.307,-6.091c-36.544,-0 -67.176,7.918 -91.895,23.754c-24.719,15.836 -44.517,40.605 -59.393,74.307c-14.875,33.702 -27.039,77.353 -36.49,130.952c-9.737,55.223 -11.044,99.482 -3.922,132.779c7.123,33.296 23.166,57.456 48.128,72.48c24.962,15.024 58.964,22.536 102.006,22.536c38.981,-0 71.978,-4.061 98.991,-12.182c27.013,-8.121 40.52,-12.181 40.52,-12.181l9.751,41.417Z" style="fill:#fff;fill-rule:nonzero;"/><path d="M4567.72,1295.1l100.459,-17.054l120.07,-680.949l-94.446,-17.054l9.666,-54.817l191.103,-26.799l25.584,20.708l-82.265,466.554l60.907,-0l151.531,-154.706l2.577,-14.618l-68.075,-14.618l9.666,-54.817l249.721,0l-9.451,53.599l-81.398,19.491l-168.582,175.414l111.035,275.303l96.811,24.363l-9.666,54.817l-214.395,-0l3.866,-21.927c2.291,-12.994 1.048,-24.363 -3.731,-34.108l-92.112,-237.54l-51.162,-0l-39.093,221.704l84.7,17.054l-9.666,54.817l-303.32,-0l9.666,-54.817Z" style="fill:#fff;fill-rule:nonzero;"/></g><g><path d="M1411.41,1556.02l143.133,-0c0.06,2.538 -0.04,5.266 -0.301,8.184c-0.261,2.919 -0.638,5.774 -1.13,8.566c-0.492,2.791 -1.134,5.71 -1.924,8.755c-0.791,3.045 -1.664,5.837 -2.619,8.375l-104.305,-0l-14.163,80.322l87.175,-0c0.015,2.792 -0.108,5.647 -0.369,8.565c-0.26,2.919 -0.637,5.774 -1.129,8.565c-0.492,2.792 -1.123,5.647 -1.891,8.565c-0.769,2.919 -1.653,5.774 -2.652,8.566l-87.175,-0l-22.083,125.241c-3.135,0.508 -6.311,0.888 -9.528,1.142c-3.217,0.254 -6.602,0.381 -10.155,0.381c-3.299,-0 -6.639,-0.127 -10.021,-0.381c-3.381,-0.254 -6.423,-0.634 -9.125,-1.142l48.262,-273.704Z" style="fill:#fff;fill-rule:nonzero;"/><path d="M1622.73,1834.29c-15.227,0 -28.092,-2.601 -38.594,-7.804c-10.503,-5.202 -18.756,-12.372 -24.758,-21.508c-6.003,-9.136 -9.748,-19.922 -11.235,-32.357c-1.487,-12.435 -0.955,-25.886 1.595,-40.351c2.551,-14.466 6.763,-27.916 12.635,-40.352c5.873,-12.435 13.421,-23.221 22.646,-32.357c9.224,-9.136 20.016,-16.369 32.376,-21.698c12.36,-5.33 26.153,-7.994 41.38,-7.994c15.227,-0 28.081,2.664 38.561,7.994c10.481,5.329 18.722,12.562 24.725,21.698c6.002,9.136 9.747,19.922 11.234,32.357c1.488,12.436 0.956,25.886 -1.595,40.352c-2.55,14.465 -6.762,27.916 -12.635,40.351c-5.872,12.435 -13.421,23.221 -22.645,32.357c-9.224,9.136 -20.005,16.306 -32.343,21.508c-12.338,5.203 -26.12,7.804 -41.347,7.804Zm5.303,-30.073c17.511,-0 31.573,-6.345 42.185,-19.034c10.612,-12.689 17.91,-30.327 21.892,-52.913c3.983,-22.587 2.894,-40.161 -3.266,-52.724c-6.159,-12.562 -17.995,-18.843 -35.506,-18.843c-17.511,0 -31.498,6.281 -41.961,18.843c-10.463,12.563 -17.685,30.137 -21.668,52.724c-3.983,22.586 -2.969,40.224 3.042,52.913c6.01,12.689 17.771,19.034 35.282,19.034Z" style="fill:#fff;fill-rule:nonzero;"/><path d="M1798.43,1634.43c2.881,-0.508 5.613,-0.889 8.196,-1.142c2.582,-0.254 5.269,-0.381 8.061,-0.381c2.792,-0 5.561,0.127 8.308,0.381c2.747,0.253 5.217,0.634 7.412,1.142c0.09,3.806 -0.032,8.819 -0.367,15.036c-0.335,6.218 -0.883,11.484 -1.644,15.798c6.851,-8.628 15.213,-16.115 25.088,-22.46c9.874,-6.344 21.663,-9.516 35.367,-9.516c2.031,-0 4.113,0.063 6.248,0.19c2.135,0.127 3.941,0.317 5.419,0.571c0.105,2.284 0.06,4.695 -0.133,7.233c-0.194,2.538 -0.537,5.202 -1.029,7.994c-0.537,3.045 -1.287,6.218 -2.249,9.517c-0.963,3.299 -1.966,6.471 -3.011,9.517c-1.941,-0.508 -3.99,-0.762 -6.147,-0.762l-5.139,0c-6.852,0 -13.555,0.952 -20.108,2.855c-6.553,1.904 -12.729,5.266 -18.528,10.088c-5.799,4.822 -10.896,11.42 -15.292,19.795c-4.395,8.375 -7.756,19.161 -10.083,32.357l-17.116,97.072c-2.881,0.508 -6.057,0.888 -9.528,1.142c-3.471,0.254 -6.602,0.381 -9.394,0.381c-2.791,-0 -5.878,-0.127 -9.259,-0.381c-3.381,-0.254 -6.55,-0.634 -9.506,-1.142l34.434,-195.285Z" style="fill:#fff;fill-rule:nonzero;"/><path d="M2032.19,1664.51l-29.692,-0l-0.583,-5.33l78.363,-73.089l3.046,0l-8.525,48.346l49.488,-0c0.254,4.314 -0.089,9.136 -1.028,14.465c-0.493,2.792 -1.089,5.457 -1.791,7.994c-0.701,2.538 -1.529,5.076 -2.484,7.614l-49.488,-0l-15.706,89.077c-1.88,10.659 -2.935,19.161 -3.165,25.506c-0.231,6.344 0.431,11.229 1.984,14.655c1.553,3.427 4.068,5.711 7.547,6.853c3.478,1.142 8.009,1.713 13.592,1.713c4.315,-0 8.431,-0.318 12.35,-0.952c3.918,-0.635 7.467,-1.332 10.647,-2.094c0.882,5.076 1.043,10.278 0.484,15.608c-0.559,5.329 -1.197,10.024 -1.913,14.085c-5.299,1.269 -10.796,2.22 -16.491,2.855c-5.696,0.634 -11.715,0.951 -18.06,0.951c-18.272,0 -31.764,-4.441 -40.476,-13.323c-8.712,-8.882 -11.256,-23.602 -7.631,-44.158l19.532,-110.776Z" style="fill:#fff;fill-rule:nonzero;"/><path d="M2180.93,1550.69c2.881,-0.508 6.057,-0.889 9.528,-1.142c3.47,-0.254 6.602,-0.381 9.393,-0.381c2.792,-0 5.942,0.127 9.45,0.381c3.508,0.253 6.613,0.634 9.315,1.142l-20.002,113.44c2.91,-3.553 6.437,-7.359 10.579,-11.42c4.142,-4.061 8.989,-7.804 14.542,-11.23c5.553,-3.426 11.755,-6.218 18.607,-8.375c6.852,-2.157 14.211,-3.235 22.079,-3.235c22.332,-0 37.762,6.408 46.288,19.224c8.526,12.816 10.574,31.786 6.143,56.91l-21.814,123.719c-2.882,0.508 -6.058,0.888 -9.528,1.142c-3.471,0.254 -6.602,0.381 -9.394,0.381c-2.792,-0 -5.878,-0.127 -9.259,-0.381c-3.382,-0.254 -6.423,-0.634 -9.125,-1.142l20.002,-113.441c3.177,-18.018 2.533,-31.278 -1.931,-39.78c-4.465,-8.502 -12.788,-12.752 -24.97,-12.752c-6.852,-0 -13.663,1.205 -20.433,3.616c-6.769,2.411 -13.024,6.218 -18.763,11.42c-5.739,5.203 -10.743,11.991 -15.011,20.366c-4.268,8.375 -7.454,18.526 -9.557,30.454l-17.654,100.117c-2.881,0.508 -6.12,0.888 -9.718,1.142c-3.598,0.254 -6.792,0.381 -9.584,0.381c-2.538,-0 -5.561,-0.127 -9.069,-0.381c-3.508,-0.254 -6.613,-0.634 -9.315,-1.142l49.201,-279.033Z" style="fill:#fff;fill-rule:nonzero;"/><path d="M2395.88,1741.4c-3.251,21.318 -0.484,36.925 8.303,46.823c8.787,9.897 23.458,14.846 44.015,14.846c18.018,-0 35.708,-3.172 53.069,-9.517c1.359,3.807 2.192,8.438 2.498,13.895c0.307,5.456 0.118,10.849 -0.568,16.178c-9.002,3.553 -18.671,6.218 -29.009,7.994c-10.337,1.777 -21.597,2.665 -33.778,2.665c-17.765,0 -32.556,-2.474 -44.372,-7.423c-11.817,-4.949 -21.055,-11.928 -27.714,-20.937c-6.659,-9.009 -10.807,-19.668 -12.444,-31.977c-1.636,-12.308 -1.157,-25.822 1.439,-40.541c2.55,-14.466 6.773,-27.98 12.668,-40.542c5.895,-12.562 13.466,-23.475 22.713,-32.738c9.246,-9.263 20.124,-16.623 32.634,-22.079c12.509,-5.456 26.631,-8.184 42.365,-8.184c13.451,-0 24.849,2.284 34.195,6.852c9.345,4.568 16.74,10.849 22.182,18.843c5.443,7.994 8.967,17.511 10.573,28.551c1.607,11.039 1.269,23.03 -1.013,35.973c-0.627,3.553 -1.414,7.296 -2.361,11.23c-0.947,3.934 -1.794,7.296 -2.54,10.088l-132.855,-0Zm101.658,-28.17c1.253,-7.106 1.498,-13.895 0.736,-20.366c-0.762,-6.471 -2.558,-12.118 -5.388,-16.94c-2.829,-4.822 -6.842,-8.692 -12.038,-11.61c-5.195,-2.919 -11.726,-4.378 -19.594,-4.378c-15.48,-0 -28.172,4.695 -38.076,14.085c-9.904,9.39 -17.22,22.459 -21.95,39.209l96.31,0Z" style="fill:#fff;fill-rule:nonzero;"/><path d="M2702.45,1550.69c2.881,-0.508 6.057,-0.889 9.528,-1.142c3.471,-0.254 6.602,-0.381 9.394,-0.381c2.791,-0 5.878,0.127 9.259,0.381c3.381,0.253 6.423,0.634 9.125,1.142l-38.797,220.029c-1.253,7.106 -1.603,12.689 -1.05,16.749c0.553,4.061 1.718,7.17 3.495,9.327c1.776,2.157 4.068,3.553 6.875,4.187c2.806,0.635 5.859,0.952 9.158,0.952c2.284,-0 4.908,-0.127 7.871,-0.381c2.964,-0.254 5.505,-0.634 7.625,-1.142c0.718,8.883 0.159,18.526 -1.675,28.931c-3.777,1.269 -8.237,2.094 -13.38,2.475c-5.142,0.38 -9.871,0.571 -14.185,0.571c-7.36,-0 -14.055,-0.888 -20.087,-2.665c-6.031,-1.776 -11.1,-4.695 -15.205,-8.755c-4.106,-4.061 -6.951,-9.517 -8.534,-16.369c-1.584,-6.852 -1.481,-15.354 0.309,-25.505l40.274,-228.404Z" style="fill:#fff;fill-rule:nonzero;"/><path d="M2845.83,1834.29c-15.227,0 -28.092,-2.601 -38.595,-7.804c-10.503,-5.202 -18.756,-12.372 -24.758,-21.508c-6.003,-9.136 -9.747,-19.922 -11.235,-32.357c-1.487,-12.435 -0.955,-25.886 1.596,-40.351c2.55,-14.466 6.762,-27.916 12.634,-40.352c5.873,-12.435 13.421,-23.221 22.646,-32.357c9.224,-9.136 20.016,-16.369 32.376,-21.698c12.36,-5.33 26.154,-7.994 41.381,-7.994c15.227,-0 28.08,2.664 38.561,7.994c10.48,5.329 18.722,12.562 24.724,21.698c6.003,9.136 9.748,19.922 11.235,32.357c1.487,12.436 0.955,25.886 -1.595,40.352c-2.551,14.465 -6.763,27.916 -12.635,40.351c-5.873,12.435 -13.421,23.221 -22.646,32.357c-9.224,9.136 -20.005,16.306 -32.343,21.508c-12.337,5.203 -26.119,7.804 -41.346,7.804Zm5.302,-30.073c17.511,-0 31.573,-6.345 42.185,-19.034c10.612,-12.689 17.91,-30.327 21.892,-52.913c3.983,-22.587 2.895,-40.161 -3.265,-52.724c-6.16,-12.562 -17.995,-18.843 -35.506,-18.843c-17.511,0 -31.498,6.281 -41.961,18.843c-10.463,12.563 -17.686,30.137 -21.669,52.724c-3.982,22.586 -2.968,40.224 3.042,52.913c6.011,12.689 17.771,19.034 35.282,19.034Z" style="fill:#fff;fill-rule:nonzero;"/><path d="M2989.94,1634.43c3.642,-0.508 7.389,-0.889 11.241,-1.142c3.851,-0.254 7.3,-0.381 10.345,-0.381c3.299,-0 6.893,0.127 10.782,0.381c3.889,0.253 7.184,0.634 9.887,1.142l24.901,161.024l82.068,-161.024c2.881,-0.508 6.12,-0.889 9.718,-1.142c3.598,-0.254 7.046,-0.381 10.345,-0.381c2.792,-0 5.942,0.127 9.45,0.381c3.508,0.253 6.994,0.634 10.457,1.142l-110.568,195.285c-3.389,0.508 -6.755,0.888 -10.099,1.142c-3.344,0.254 -6.412,0.381 -9.204,0.381c-2.791,-0 -5.751,-0.127 -8.878,-0.381c-3.128,-0.254 -6.169,-0.634 -9.125,-1.142l-41.32,-195.285Z" style="fill:#fff;fill-rule:nonzero;"/><path d="M3217.76,1741.4c-3.252,21.318 -0.484,36.925 8.303,46.823c8.786,9.897 23.458,14.846 44.014,14.846c18.019,-0 35.709,-3.172 53.069,-9.517c1.359,3.807 2.192,8.438 2.499,13.895c0.307,5.456 0.117,10.849 -0.569,16.178c-9.001,3.553 -18.67,6.218 -29.008,7.994c-10.338,1.777 -21.597,2.665 -33.779,2.665c-17.765,0 -32.555,-2.474 -44.372,-7.423c-11.816,-4.949 -21.054,-11.928 -27.713,-20.937c-6.66,-9.009 -10.808,-19.668 -12.444,-31.977c-1.637,-12.308 -1.157,-25.822 1.438,-40.541c2.551,-14.466 6.774,-27.98 12.669,-40.542c5.895,-12.562 13.465,-23.475 22.712,-32.738c9.247,-9.263 20.125,-16.623 32.634,-22.079c12.509,-5.456 26.631,-8.184 42.366,-8.184c13.45,-0 24.848,2.284 34.194,6.852c9.346,4.568 16.74,10.849 22.183,18.843c5.442,7.994 8.967,17.511 10.573,28.551c1.606,11.039 1.269,23.03 -1.014,35.973c-0.626,3.553 -1.413,7.296 -2.36,11.23c-0.948,3.934 -1.794,7.296 -2.541,10.088l-132.854,-0Zm101.658,-28.17c1.253,-7.106 1.498,-13.895 0.736,-20.366c-0.763,-6.471 -2.559,-12.118 -5.388,-16.94c-2.83,-4.822 -6.842,-8.692 -12.038,-11.61c-5.195,-2.919 -11.727,-4.378 -19.594,-4.378c-15.481,-0 -28.173,4.695 -38.076,14.085c-9.904,9.39 -17.221,22.459 -21.951,39.209l96.311,0Z" style="fill:#fff;fill-rule:nonzero;"/><path d="M3554.26,1834.29c-15.227,0 -28.092,-2.601 -38.595,-7.804c-10.503,-5.202 -18.756,-12.372 -24.758,-21.508c-6.003,-9.136 -9.747,-19.922 -11.235,-32.357c-1.487,-12.435 -0.955,-25.886 1.596,-40.351c2.55,-14.466 6.762,-27.916 12.634,-40.352c5.873,-12.435 13.421,-23.221 22.646,-32.357c9.224,-9.136 20.016,-16.369 32.376,-21.698c12.36,-5.33 26.154,-7.994 41.381,-7.994c15.227,-0 28.08,2.664 38.561,7.994c10.48,5.329 18.722,12.562 24.724,21.698c6.003,9.136 9.748,19.922 11.235,32.357c1.487,12.436 0.955,25.886 -1.595,40.352c-2.551,14.465 -6.763,27.916 -12.635,40.351c-5.873,12.435 -13.421,23.221 -22.646,32.357c-9.224,9.136 -20.005,16.306 -32.343,21.508c-12.337,5.203 -26.119,7.804 -41.346,7.804Zm5.302,-30.073c17.511,-0 31.573,-6.345 42.185,-19.034c10.612,-12.689 17.91,-30.327 21.893,-52.913c3.982,-22.587 2.894,-40.161 -3.266,-52.724c-6.16,-12.562 -17.995,-18.843 -35.506,-18.843c-17.511,0 -31.498,6.281 -41.961,18.843c-10.463,12.563 -17.686,30.137 -21.669,52.724c-3.982,22.586 -2.968,40.224 3.042,52.913c6.011,12.689 17.771,19.034 35.282,19.034Z" style="fill:#fff;fill-rule:nonzero;"/><path d="M3736.15,1664.13l-31.976,0c-0.299,-4.06 0.066,-9.009 1.095,-14.846c0.984,-5.583 2.364,-10.532 4.14,-14.846l31.977,-0l2.416,-13.705c4.251,-24.109 13.512,-42.445 27.782,-55.007c14.269,-12.562 32.951,-18.843 56.045,-18.843c6.345,-0 11.872,0.317 16.582,0.952c4.71,0.634 9.11,1.586 13.201,2.855c-1.626,6.344 -3.286,11.8 -4.98,16.369c-1.694,4.568 -3.727,9.263 -6.1,14.084c-2.448,-0.507 -5.33,-1.078 -8.644,-1.713c-3.314,-0.634 -7.382,-0.951 -12.204,-0.951c-5.583,-0 -10.696,0.571 -15.338,1.713c-4.643,1.142 -8.83,3.299 -12.562,6.471c-3.731,3.172 -6.989,7.614 -9.772,13.324c-2.783,5.71 -4.958,13.006 -6.524,21.888l-2.215,12.563l49.868,-0c-0.134,5.075 -0.671,10.278 -1.61,15.607c-0.851,4.822 -2.059,9.517 -3.626,14.085l-49.868,0l-29.199,165.593c-2.881,0.508 -6.057,0.888 -9.527,1.142c-3.471,0.254 -6.602,0.381 -9.394,0.381c-2.792,-0 -5.942,-0.127 -9.45,-0.381c-3.508,-0.254 -6.613,-0.634 -9.315,-1.142l29.198,-165.593Z" style="fill:#fff;fill-rule:nonzero;"/><path d="M3976.01,1556.02c3.135,-0.508 6.374,-0.888 9.718,-1.142c3.344,-0.254 6.665,-0.381 9.965,-0.381c3.299,0 6.576,0.127 9.83,0.381c3.254,0.254 6.359,0.634 9.315,1.142l-48.261,273.704c-3.135,0.508 -6.311,0.888 -9.528,1.142c-3.217,0.254 -6.602,0.381 -10.155,0.381c-3.299,-0 -6.639,-0.127 -10.021,-0.381c-3.381,-0.254 -6.423,-0.634 -9.125,-1.142l48.262,-273.704Z" style="fill:#fff;fill-rule:nonzero;"/><path d="M4064.96,1634.43c2.881,-0.508 5.613,-0.889 8.196,-1.142c2.582,-0.254 5.269,-0.381 8.061,-0.381c2.792,-0 5.561,0.127 8.308,0.381c2.746,0.253 5.217,0.634 7.412,1.142c0.09,3.806 -0.033,8.819 -0.368,15.036c-0.335,6.218 -0.882,11.484 -1.643,15.798c6.851,-8.628 15.213,-16.115 25.087,-22.46c9.875,-6.344 21.664,-9.516 35.368,-9.516c2.03,-0 4.113,0.063 6.248,0.19c2.134,0.127 3.941,0.317 5.419,0.571c0.105,2.284 0.06,4.695 -0.134,7.233c-0.193,2.538 -0.536,5.202 -1.028,7.994c-0.537,3.045 -1.287,6.218 -2.25,9.517c-0.962,3.299 -1.965,6.471 -3.01,9.517c-1.941,-0.508 -3.99,-0.762 -6.147,-0.762l-5.139,0c-6.852,0 -13.555,0.952 -20.108,2.855c-6.553,1.904 -12.729,5.266 -18.528,10.088c-5.799,4.822 -10.897,11.42 -15.292,19.795c-4.395,8.375 -7.756,19.161 -10.083,32.357l-17.116,97.072c-2.881,0.508 -6.057,0.888 -9.528,1.142c-3.471,0.254 -6.602,0.381 -9.394,0.381c-2.791,-0 -5.878,-0.127 -9.259,-0.381c-3.381,-0.254 -6.55,-0.634 -9.506,-1.142l34.434,-195.285Z" style="fill:#fff;fill-rule:nonzero;"/><path d="M4210.17,1741.4c-3.252,21.318 -0.484,36.925 8.303,46.823c8.787,9.897 23.458,14.846 44.015,14.846c18.018,-0 35.708,-3.172 53.069,-9.517c1.359,3.807 2.192,8.438 2.498,13.895c0.307,5.456 0.118,10.849 -0.568,16.178c-9.002,3.553 -18.671,6.218 -29.009,7.994c-10.337,1.777 -21.597,2.665 -33.778,2.665c-17.765,0 -32.556,-2.474 -44.372,-7.423c-11.817,-4.949 -21.055,-11.928 -27.714,-20.937c-6.659,-9.009 -10.807,-19.668 -12.444,-31.977c-1.636,-12.308 -1.157,-25.822 1.439,-40.541c2.55,-14.466 6.773,-27.98 12.668,-40.542c5.895,-12.562 13.466,-23.475 22.713,-32.738c9.246,-9.263 20.124,-16.623 32.634,-22.079c12.509,-5.456 26.631,-8.184 42.365,-8.184c13.451,-0 24.849,2.284 34.194,6.852c9.346,4.568 16.74,10.849 22.183,18.843c5.443,7.994 8.967,17.511 10.573,28.551c1.607,11.039 1.269,23.03 -1.013,35.973c-0.627,3.553 -1.414,7.296 -2.361,11.23c-0.947,3.934 -1.794,7.296 -2.54,10.088l-132.855,-0Zm101.658,-28.17c1.253,-7.106 1.498,-13.895 0.736,-20.366c-0.762,-6.471 -2.558,-12.118 -5.388,-16.94c-2.83,-4.822 -6.842,-8.692 -12.038,-11.61c-5.195,-2.919 -11.726,-4.378 -19.594,-4.378c-15.48,-0 -28.173,4.695 -38.076,14.085c-9.904,9.39 -17.221,22.459 -21.95,39.209l96.31,0Z" style="fill:#fff;fill-rule:nonzero;"/><path d="M4426.52,1550.69c2.881,-0.508 6.057,-0.889 9.527,-1.142c3.471,-0.254 6.602,-0.381 9.394,-0.381c2.792,-0 5.878,0.127 9.259,0.381c3.382,0.253 6.423,0.634 9.126,1.142l-38.797,220.029c-1.253,7.106 -1.603,12.689 -1.051,16.749c0.553,4.061 1.718,7.17 3.495,9.327c1.777,2.157 4.069,3.553 6.875,4.187c2.807,0.635 5.86,0.952 9.159,0.952c2.284,-0 4.908,-0.127 7.871,-0.381c2.963,-0.254 5.505,-0.634 7.624,-1.142c0.718,8.883 0.16,18.526 -1.675,28.931c-3.777,1.269 -8.236,2.094 -13.379,2.475c-5.143,0.38 -9.872,0.571 -14.186,0.571c-7.359,-0 -14.055,-0.888 -20.086,-2.665c-6.032,-1.776 -11.1,-4.695 -15.206,-8.755c-4.106,-4.061 -6.951,-9.517 -8.534,-16.369c-1.583,-6.852 -1.48,-15.354 0.31,-25.505l40.274,-228.404Z" style="fill:#fff;fill-rule:nonzero;"/><path d="M4610.86,1737.98c-3.718,-0.508 -8.45,-1.015 -14.198,-1.523c-5.747,-0.507 -10.651,-0.761 -14.712,-0.761c-15.734,-0 -28.24,2.918 -37.517,8.755c-9.277,5.837 -14.967,14.72 -17.071,26.647c-1.342,7.614 -0.998,13.578 1.033,17.892c2.031,4.314 4.939,7.614 8.723,9.898c3.785,2.284 8.171,3.679 13.157,4.187c4.986,0.508 9.763,0.761 14.331,0.761c5.837,0 11.92,-0.317 18.25,-0.951c6.329,-0.635 12.017,-1.587 17.063,-2.855l10.941,-62.05Zm6.51,-36.925c2.641,-14.974 0.669,-25.379 -5.916,-31.216c-6.584,-5.837 -17.109,-8.755 -31.574,-8.755c-8.883,-0 -17.317,0.698 -25.304,2.094c-7.986,1.395 -15.861,3.235 -23.623,5.519c-3.345,-8.375 -3.989,-18.399 -1.93,-30.073c9.121,-2.792 19.018,-4.949 29.692,-6.471c10.673,-1.523 20.832,-2.284 30.475,-2.284c25.379,-0 43.648,5.773 54.809,17.32c11.16,11.547 14.503,30.01 10.028,55.388l-21.546,122.196c-9.241,2.031 -20.395,4.124 -33.465,6.281c-13.069,2.158 -26.202,3.236 -39.399,3.236c-12.435,0 -23.464,-1.142 -33.086,-3.426c-9.621,-2.284 -17.474,-5.964 -23.558,-11.039c-6.084,-5.076 -10.336,-11.548 -12.756,-19.415c-2.419,-7.867 -2.644,-17.384 -0.675,-28.55c1.924,-10.913 5.834,-20.493 11.729,-28.741c5.896,-8.248 13.131,-15.1 21.707,-20.556c8.575,-5.457 18.047,-9.517 28.414,-12.182c10.368,-2.665 21.008,-3.997 31.92,-3.997c8.121,-0 14.749,0.19 19.885,0.571c5.135,0.381 9.435,0.825 12.898,1.332l1.275,-7.232Z" style="fill:#fff;fill-rule:nonzero;"/><path d="M4722.77,1634.43c2.881,-0.508 5.676,-0.889 8.385,-1.142c2.71,-0.254 5.46,-0.381 8.252,-0.381c2.792,-0 5.371,0.127 7.737,0.381c2.366,0.253 4.9,0.634 7.602,1.142c0.09,3.806 -0.055,8.946 -0.434,15.417c-0.38,6.471 -0.95,11.864 -1.711,16.179c3.299,-4.315 7.295,-8.629 11.989,-12.943c4.695,-4.315 9.882,-8.185 15.562,-11.611c5.679,-3.426 12.009,-6.218 18.987,-8.375c6.979,-2.157 14.402,-3.235 22.269,-3.235c22.333,-0 37.699,6.408 46.098,19.224c8.399,12.816 10.383,31.786 5.953,56.91l-21.815,123.719c-2.881,0.508 -6.12,0.888 -9.718,1.142c-3.598,0.254 -6.792,0.381 -9.584,0.381c-2.791,-0 -5.878,-0.127 -9.259,-0.381c-3.381,-0.254 -6.423,-0.634 -9.125,-1.142l20.002,-113.441c3.178,-18.018 2.724,-31.278 -1.36,-39.78c-4.084,-8.502 -12.217,-12.752 -24.399,-12.752c-7.105,-0 -14.054,1.268 -20.847,3.806c-6.792,2.538 -13.068,6.472 -18.83,11.801c-5.762,5.33 -10.851,12.245 -15.269,20.747c-4.417,8.502 -7.678,18.716 -9.781,30.644l-17.452,98.975c-2.881,0.508 -6.057,0.888 -9.528,1.142c-3.47,0.254 -6.602,0.381 -9.393,0.381c-2.792,-0 -5.942,-0.127 -9.45,-0.381c-3.508,-0.254 -6.613,-0.634 -9.315,-1.142l34.434,-195.285Z" style="fill:#fff;fill-rule:nonzero;"/><path d="M5082.8,1550.69c2.881,-0.508 6.121,-0.889 9.719,-1.142c3.597,-0.254 6.665,-0.381 9.203,-0.381c2.791,-0 5.878,0.127 9.259,0.381c3.382,0.253 6.423,0.634 9.125,1.142l-48.261,273.704c-10.136,2.791 -21.336,5.139 -33.599,7.042c-12.263,1.903 -25.755,2.855 -40.474,2.855c-13.704,0 -26.409,-1.713 -38.113,-5.139c-11.704,-3.426 -21.431,-9.073 -29.18,-16.94c-7.749,-7.867 -13.192,-18.018 -16.329,-30.454c-3.136,-12.435 -3.094,-27.789 0.128,-46.061c2.775,-15.735 7.65,-30.073 14.628,-43.016c6.977,-12.943 15.596,-24.046 25.858,-33.309c10.262,-9.263 21.868,-16.433 34.818,-21.508c12.949,-5.076 26.784,-7.614 41.503,-7.614c6.598,0 13.171,0.508 19.717,1.523c6.546,1.015 12.223,2.284 17.03,3.807l14.968,-84.89Zm-20.606,116.866c-4.718,-2.03 -9.906,-3.553 -15.564,-4.568c-5.658,-1.015 -11.913,-1.523 -18.765,-1.523c-10.405,0 -19.75,1.904 -28.035,5.711c-8.284,3.806 -15.483,9.009 -21.595,15.607c-6.112,6.599 -11.168,14.402 -15.168,23.412c-3.999,9.009 -6.939,18.843 -8.818,29.502c-3.997,24.109 -1.33,41.366 8.002,51.771c9.331,10.405 23.641,15.608 42.928,15.608c6.599,-0 12.745,-0.317 18.44,-0.952c5.695,-0.634 10.812,-1.586 15.35,-2.855l23.225,-131.713Z" style="fill:#fff;fill-rule:nonzero;"/></g></svg>